<svg id="Layer_1" data-name="Layer 1" xmlns="http://www.w3.org/2000/svg" xmlns:xlink="http://www.w3.org/1999/xlink" viewBox="0 0 690.52 188.79"><defs><style>.cls-1{font-size:195.01px;font-family:ArialRoundedMTBold, Arial Rounded MT Bold;}.cls-1,.cls-4{fill:#1e395b;}.cls-2{letter-spacing:-0.01em;}.cls-3{letter-spacing:-0.01em;}.cls-4{font-size:24.57px;font-family:Roboto-Medium, Roboto;font-weight:500;letter-spacing:0.15em;}.cls-5{letter-spacing:0.14em;}.cls-6{fill:url(#linear-gradient);}.cls-7{fill:#00a79d;}</style><linearGradient id="linear-gradient" x1="17.4" y1="93.78" x2="229.56" y2="93.78" gradientUnits="userSpaceOnUse"><stop offset="0" stop-color="#292a60"/><stop offset="0.1" stop-color="#2d2a60"/><stop offset="0.2" stop-color="#392960"/><stop offset="0.3" stop-color="#4e2760"/><stop offset="0.41" stop-color="#6a2560"/><stop offset="0.51" stop-color="#8f235f"/><stop offset="0.61" stop-color="#bb1f5f"/><stop offset="0.68" stop-color="#da1d5f"/><stop offset="0.72" stop-color="#e03951"/><stop offset="0.8" stop-color="#e85f3d"/><stop offset="0.87" stop-color="#ed7b2f"/><stop offset="0.94" stop-color="#f18c26"/><stop offset="0.98" stop-color="#f29223"/></linearGradient></defs><title>zero</title><text class="cls-1" transform="translate(243.35 135.17)"><tspan class="cls-2">z</tspan><tspan x="99.03" y="0">e</tspan><tspan class="cls-3" x="214.91" y="0">r</tspan><tspan x="297.75" y="0">p</tspan></text><text class="cls-4" transform="translate(245.51 170.63)">BUSINESS SO<tspan class="cls-5" x="192.71" y="0">L</tspan><tspan x="209.4" y="0">UTION</tspan></text><polygon class="cls-6" points="171.78 23.23 185.86 37.31 137.17 95.48 101.57 60.47 17.4 169.71 100.39 106.71 138.68 140.11 209.61 61.06 226.5 77.94 229.56 17.85 171.78 23.23"/><polygon class="cls-7" points="98.22 117.57 58.41 146.46 58.41 169.71 98.22 169.71 98.22 117.57"/><polygon class="cls-7" points="54.53 148.07 26.33 169.71 54.53 169.71 54.53 148.07"/><polygon class="cls-7" points="182.04 102.85 142.23 148.89 142.23 169.71 182.04 169.71 182.04 102.85"/><polygon class="cls-7" points="225.73 86.78 210.99 72.05 185.92 100.03 185.92 169.71 225.73 169.71 225.73 86.78"/><polygon class="cls-7" points="101.96 117.57 138.5 147.94 138.06 169.71 101.96 169.71 101.96 117.57"/></svg>