<svg id="Layer_1" data-name="Layer 1" xmlns="http://www.w3.org/2000/svg" xmlns:xlink="http://www.w3.org/1999/xlink" viewBox="0 0 690.52 188.79"><defs><style>.cls-1{fill:#1e395b;}.cls-2{fill:url(#linear-gradient);}.cls-3{fill:#00a79d;}</style><linearGradient id="linear-gradient" x1="17.4" y1="93.78" x2="229.56" y2="93.78" gradientUnits="userSpaceOnUse"><stop offset="0" stop-color="#292a60"/><stop offset="0.1" stop-color="#2d2a60"/><stop offset="0.2" stop-color="#392960"/><stop offset="0.3" stop-color="#4e2760"/><stop offset="0.41" stop-color="#6a2560"/><stop offset="0.51" stop-color="#8f235f"/><stop offset="0.61" stop-color="#bb1f5f"/><stop offset="0.68" stop-color="#da1d5f"/><stop offset="0.72" stop-color="#e03951"/><stop offset="0.8" stop-color="#e85f3d"/><stop offset="0.87" stop-color="#ed7b2f"/><stop offset="0.94" stop-color="#f18c26"/><stop offset="0.98" stop-color="#f29223"/></linearGradient></defs><title>zero</title><path class="cls-1" d="M327.43,61.66l-47.61,53.23h50.94q6.19,0,9.33,2.9a9.72,9.72,0,0,1,3.15,7.48,9.14,9.14,0,0,1-3.1,7.14q-3.09,2.76-9.38,2.76H260.3q-7.43,0-11.09-3.24a11.33,11.33,0,0,1-1.1-15.56q2.58-3.39,10.67-12.43,8.57-9.52,15.57-17.24t13-14.42q6-6.72,10-11.38t6.33-8H265q-8,0-12.1-1.43T248.78,44a9,9,0,0,1,3.09-7.14c2.07-1.78,5-2.67,8.81-2.67h59.7q8.3,0,12.71,2.43t4.43,8.71a12.12,12.12,0,0,1-.85,4.34,15.92,15.92,0,0,1-1.91,3.66c-.7,1-1.65,2.11-2.86,3.48S329.21,59.76,327.43,61.66Z"/><path class="cls-1" d="M428.36,91.08H377.51a34.7,34.7,0,0,0,3.57,15.62A23.91,23.91,0,0,0,403,120.32a31.25,31.25,0,0,0,8.53-1.1,27.58,27.58,0,0,0,7.47-3.43,57.22,57.22,0,0,0,6.66-5q3.06-2.67,7.91-7.24a8.54,8.54,0,0,1,5.71-1.72,9.43,9.43,0,0,1,6.48,2.19,7.85,7.85,0,0,1,2.47,6.19q0,3.52-2.76,8.24a32.79,32.79,0,0,1-8.33,9.05,47.62,47.62,0,0,1-14,7.19,60.44,60.44,0,0,1-19.38,2.85q-25,0-38.94-14.28T351,84.51a64.49,64.49,0,0,1,3.43-21.37,47.06,47.06,0,0,1,10-16.9,43.38,43.38,0,0,1,16.19-10.81,58,58,0,0,1,21.33-3.76q15.24,0,26.14,6.43a42.25,42.25,0,0,1,16.33,16.61,43.65,43.65,0,0,1,5.42,20.76q0,9.81-5.61,12.71T428.36,91.08ZM377.51,76.33h47.14q-1-13.33-7.19-19.95T401,49.76a20.83,20.83,0,0,0-15.95,6.71Q378.86,63.19,377.51,76.33Z"/><path class="cls-1" d="M497.49,100v21.71c0,5.26-1.24,9.22-3.71,11.85a12.4,12.4,0,0,1-9.43,4,11.89,11.89,0,0,1-9.24-4q-3.62-4-3.62-11.8V49.38q0-17.52,12.67-17.52,6.48,0,9.33,4.09t3.14,12.1A45.4,45.4,0,0,1,506.2,36q4.91-4.1,13.09-4.09A33.56,33.56,0,0,1,535.2,36q7.71,4.09,7.71,10.86a10.32,10.32,0,0,1-3.29,7.85,10.16,10.16,0,0,1-7.09,3.1,33,33,0,0,1-6.9-1.76A32,32,0,0,0,516,54.24a14.17,14.17,0,0,0-9.33,3A19.32,19.32,0,0,0,501,66.14a62.41,62.41,0,0,0-2.76,14Q497.49,88.32,497.49,100Z"/><path class="cls-1" d="M578.52,46.43v3.14q7.34-9,15.24-13.28a37.18,37.18,0,0,1,17.9-4.24,41.42,41.42,0,0,1,22.09,6.19,42.72,42.72,0,0,1,16,18.09q5.85,11.91,5.85,28.18a68.63,68.63,0,0,1-3.38,22,49.46,49.46,0,0,1-9.28,16.85,40.68,40.68,0,0,1-13.95,10.48,41.28,41.28,0,0,1-17.28,3.66q-11.14,0-18.71-4.47a53.64,53.64,0,0,1-14.43-13.14v39q0,17.13-12.47,17.14-7.34,0-9.71-4.43c-1.59-2.95-2.39-7.26-2.39-12.9V46.62q0-7.42,3.24-11.1a11.22,11.22,0,0,1,8.86-3.66,11.69,11.69,0,0,1,9,3.76Q578.52,39.39,578.52,46.43Zm50.94,37.8a44.82,44.82,0,0,0-3.14-17.66,25.86,25.86,0,0,0-8.71-11.33,20.81,20.81,0,0,0-12.33-4,23.14,23.14,0,0,0-18.14,8.48q-7.38,8.48-7.38,24.95,0,15.51,7.33,24.13a22.94,22.94,0,0,0,18.19,8.62,20.86,20.86,0,0,0,12-3.76,25.83,25.83,0,0,0,8.86-11.28Q629.46,94.89,629.46,84.23Z"/><path class="cls-1" d="M247.29,170.63V153.16h6a7.31,7.31,0,0,1,4.51,1.19,4.19,4.19,0,0,1,1.55,3.54,3.79,3.79,0,0,1-.65,2.16,4.13,4.13,0,0,1-1.89,1.48A3.9,3.9,0,0,1,259,163a4.26,4.26,0,0,1,.77,2.55,4.63,4.63,0,0,1-1.58,3.78,6.83,6.83,0,0,1-4.51,1.32Zm3-10.11h3a3.42,3.42,0,0,0,2.21-.65,2.19,2.19,0,0,0,.8-1.81,2.25,2.25,0,0,0-.74-1.88,3.76,3.76,0,0,0-2.3-.57h-3Zm0,2.23v5.45h3.37a3.26,3.26,0,0,0,2.23-.7,2.48,2.48,0,0,0,.81-2c0-1.82-.93-2.74-2.79-2.78Z"/><path class="cls-1" d="M279.25,153.16v11.67a5.69,5.69,0,0,1-1.78,4.41,6.75,6.75,0,0,1-4.75,1.63,6.83,6.83,0,0,1-4.76-1.6,5.69,5.69,0,0,1-1.76-4.45V153.16h3v11.69a3.67,3.67,0,0,0,.89,2.67,3.44,3.44,0,0,0,2.61.93c2.34,0,3.5-1.24,3.5-3.7V153.16Z"/><path class="cls-1" d="M295.3,166.13a2.12,2.12,0,0,0-.81-1.78,10,10,0,0,0-2.92-1.26,13.89,13.89,0,0,1-3.36-1.41,4.48,4.48,0,0,1-2.39-3.91,4.27,4.27,0,0,1,1.72-3.48,7,7,0,0,1,4.47-1.37,7.64,7.64,0,0,1,3.25.67,5.36,5.36,0,0,1,2.25,1.92,4.9,4.9,0,0,1,.81,2.75h-3a2.74,2.74,0,0,0-.86-2.14,3.51,3.51,0,0,0-2.45-.77,3.73,3.73,0,0,0-2.31.63,2.13,2.13,0,0,0-.82,1.78,1.9,1.9,0,0,0,.89,1.6,10.24,10.24,0,0,0,2.92,1.25A13.3,13.3,0,0,1,296,162a5.21,5.21,0,0,1,1.81,1.77,4.67,4.67,0,0,1,.57,2.35,4.14,4.14,0,0,1-1.67,3.47,7.25,7.25,0,0,1-4.54,1.29,8.62,8.62,0,0,1-3.48-.7,5.94,5.94,0,0,1-2.48-1.94,4.87,4.87,0,0,1-.88-2.88h3a2.83,2.83,0,0,0,1,2.3,4.29,4.29,0,0,0,2.82.82,3.71,3.71,0,0,0,2.38-.64A2.09,2.09,0,0,0,295.3,166.13Z"/><path class="cls-1" d="M307.89,170.63h-3V153.16h3Z"/><path class="cls-1" d="M329.16,170.63h-3l-7.78-12.39v12.39h-3V153.16h3l7.81,12.44V153.16h3Z"/><path class="cls-1" d="M346.64,162.83h-7.18v5.37h8.39v2.43H336.43V153.16h11.34v2.45h-8.31v4.82h7.18Z"/><path class="cls-1" d="M363.14,166.13a2.12,2.12,0,0,0-.81-1.78,10.11,10.11,0,0,0-2.93-1.26,14,14,0,0,1-3.35-1.41,4.46,4.46,0,0,1-2.39-3.91,4.24,4.24,0,0,1,1.72-3.48,7,7,0,0,1,4.47-1.37,7.67,7.67,0,0,1,3.25.67,5.33,5.33,0,0,1,2.24,1.92,4.83,4.83,0,0,1,.82,2.75h-3a2.74,2.74,0,0,0-.86-2.14,3.52,3.52,0,0,0-2.46-.77,3.68,3.68,0,0,0-2.3.63,2.13,2.13,0,0,0-.83,1.78,1.92,1.92,0,0,0,.89,1.6,10.33,10.33,0,0,0,2.93,1.25,13,13,0,0,1,3.27,1.38,5,5,0,0,1,1.81,1.77,4.58,4.58,0,0,1,.58,2.35,4.17,4.17,0,0,1-1.67,3.47,7.27,7.27,0,0,1-4.54,1.29,8.67,8.67,0,0,1-3.49-.7,5.91,5.91,0,0,1-2.47-1.94,4.8,4.8,0,0,1-.88-2.88h3a2.81,2.81,0,0,0,1,2.3,4.25,4.25,0,0,0,2.82.82,3.73,3.73,0,0,0,2.38-.64A2.09,2.09,0,0,0,363.14,166.13Z"/><path class="cls-1" d="M381.65,166.13a2.12,2.12,0,0,0-.81-1.78,10.15,10.15,0,0,0-2.92-1.26,13.89,13.89,0,0,1-3.36-1.41,4.48,4.48,0,0,1-2.39-3.91,4.24,4.24,0,0,1,1.72-3.48,7,7,0,0,1,4.47-1.37,7.64,7.64,0,0,1,3.25.67,5.33,5.33,0,0,1,2.24,1.92,4.83,4.83,0,0,1,.82,2.75h-3a2.74,2.74,0,0,0-.86-2.14,3.51,3.51,0,0,0-2.45-.77A3.73,3.73,0,0,0,376,156a2.13,2.13,0,0,0-.82,1.78,1.91,1.91,0,0,0,.88,1.6,10.46,10.46,0,0,0,2.93,1.25A13.3,13.3,0,0,1,382.3,162a5.21,5.21,0,0,1,1.81,1.77,4.67,4.67,0,0,1,.57,2.35,4.14,4.14,0,0,1-1.67,3.47,7.27,7.27,0,0,1-4.54,1.29,8.7,8.7,0,0,1-3.49-.7,5.91,5.91,0,0,1-2.47-1.94,4.87,4.87,0,0,1-.88-2.88h3a2.8,2.8,0,0,0,1,2.3,4.29,4.29,0,0,0,2.82.82,3.73,3.73,0,0,0,2.38-.64A2.09,2.09,0,0,0,381.65,166.13Z"/><path class="cls-1" d="M410,166.13a2.12,2.12,0,0,0-.81-1.78,10,10,0,0,0-2.92-1.26,14.07,14.07,0,0,1-3.36-1.41,4.47,4.47,0,0,1-2.38-3.91,4.24,4.24,0,0,1,1.72-3.48,7,7,0,0,1,4.47-1.37,7.67,7.67,0,0,1,3.25.67,5.33,5.33,0,0,1,2.24,1.92,4.91,4.91,0,0,1,.82,2.75h-3a2.73,2.73,0,0,0-.85-2.14,3.54,3.54,0,0,0-2.46-.77,3.73,3.73,0,0,0-2.31.63,2.15,2.15,0,0,0-.82,1.78,1.92,1.92,0,0,0,.89,1.6,10.33,10.33,0,0,0,2.93,1.25,13,13,0,0,1,3.27,1.38,5,5,0,0,1,1.81,1.77,4.58,4.58,0,0,1,.58,2.35,4.15,4.15,0,0,1-1.68,3.47,7.23,7.23,0,0,1-4.54,1.29,8.65,8.65,0,0,1-3.48-.7,5.91,5.91,0,0,1-2.47-1.94,4.8,4.8,0,0,1-.88-2.88h3a2.81,2.81,0,0,0,1,2.3,4.24,4.24,0,0,0,2.81.82,3.76,3.76,0,0,0,2.39-.64A2.08,2.08,0,0,0,410,166.13Z"/><path class="cls-1" d="M433.29,162.35a10.8,10.8,0,0,1-.89,4.51,6.69,6.69,0,0,1-2.54,3,7.43,7.43,0,0,1-7.58,0,6.84,6.84,0,0,1-2.57-3,10.44,10.44,0,0,1-.92-4.42v-1a10.71,10.71,0,0,1,.91-4.51,6.79,6.79,0,0,1,2.56-3,7.42,7.42,0,0,1,7.56,0,6.72,6.72,0,0,1,2.55,3,10.63,10.63,0,0,1,.92,4.48Zm-3-.91a7.56,7.56,0,0,0-1.1-4.45,3.87,3.87,0,0,0-6.19,0,7.52,7.52,0,0,0-1.13,4.36v1A7.56,7.56,0,0,0,423,166.8a3.61,3.61,0,0,0,3.11,1.57,3.56,3.56,0,0,0,3.1-1.53,7.71,7.71,0,0,0,1.09-4.49Z"/><path class="cls-1" d="M443,168.2H451v2.43H440V153.16h3Z"/><path class="cls-1" d="M469.46,153.16v11.67a5.69,5.69,0,0,1-1.78,4.41,6.75,6.75,0,0,1-4.75,1.63,6.85,6.85,0,0,1-4.76-1.6,5.69,5.69,0,0,1-1.76-4.45V153.16h3v11.69a3.71,3.71,0,0,0,.89,2.67,3.44,3.44,0,0,0,2.61.93c2.34,0,3.51-1.24,3.51-3.7V153.16Z"/><path class="cls-1" d="M489,155.61h-5.44v15h-3v-15h-5.4v-2.45H489Z"/><path class="cls-1" d="M498.18,170.63h-3V153.16h3Z"/><path class="cls-1" d="M519.54,162.35a10.8,10.8,0,0,1-.89,4.51,6.69,6.69,0,0,1-2.54,3,7.43,7.43,0,0,1-7.58,0,6.84,6.84,0,0,1-2.57-3,10.29,10.29,0,0,1-.91-4.42v-1A10.71,10.71,0,0,1,506,157a6.86,6.86,0,0,1,2.56-3,7.44,7.44,0,0,1,7.57,0,6.72,6.72,0,0,1,2.55,3,10.63,10.63,0,0,1,.91,4.48Zm-3-.91a7.56,7.56,0,0,0-1.1-4.45,3.86,3.86,0,0,0-6.18,0,7.52,7.52,0,0,0-1.14,4.36v1a7.64,7.64,0,0,0,1.12,4.45,3.9,3.9,0,0,0,6.22,0,7.79,7.79,0,0,0,1.08-4.49Z"/><path class="cls-1" d="M540.1,170.63h-3l-7.79-12.39v12.39h-3V153.16h3l7.81,12.44V153.16h3Z"/><polygon class="cls-2" points="171.78 23.23 185.86 37.31 137.17 95.48 101.57 60.47 17.4 169.71 100.39 106.71 138.68 140.11 209.61 61.06 226.5 77.94 229.56 17.85 171.78 23.23"/><polygon class="cls-3" points="98.22 117.57 58.41 146.46 58.41 169.71 98.22 169.71 98.22 117.57"/><polygon class="cls-3" points="54.53 148.07 26.33 169.71 54.53 169.71 54.53 148.07"/><polygon class="cls-3" points="182.04 102.85 142.23 148.89 142.23 169.71 182.04 169.71 182.04 102.85"/><polygon class="cls-3" points="225.73 86.78 210.99 72.05 185.92 100.03 185.92 169.71 225.73 169.71 225.73 86.78"/><polygon class="cls-3" points="101.96 117.57 138.5 147.94 138.06 169.71 101.96 169.71 101.96 117.57"/></svg>