<svg id="Layer_1" data-name="Layer 1" xmlns="http://www.w3.org/2000/svg" xmlns:xlink="http://www.w3.org/1999/xlink" viewBox="0 0 690.52 188.79"><defs><style>.cls-1{fill:#545454;}.cls-2{fill:url(#linear-gradient);}.cls-3{fill:#00a79d;}</style><linearGradient id="linear-gradient" x1="17.4" y1="93.78" x2="229.56" y2="93.78" gradientUnits="userSpaceOnUse"><stop offset="0" stop-color="#292a60"/><stop offset="0.1" stop-color="#2d2a60"/><stop offset="0.2" stop-color="#392960"/><stop offset="0.3" stop-color="#4e2760"/><stop offset="0.41" stop-color="#6a2560"/><stop offset="0.51" stop-color="#8f235f"/><stop offset="0.61" stop-color="#bb1f5f"/><stop offset="0.68" stop-color="#da1d5f"/><stop offset="0.72" stop-color="#e03951"/><stop offset="0.8" stop-color="#e85f3d"/><stop offset="0.87" stop-color="#ed7b2f"/><stop offset="0.94" stop-color="#f18c26"/><stop offset="0.98" stop-color="#f29223"/></linearGradient></defs><title>zerp</title><path class="cls-1" d="M332.56,59.79l-44.08,49.28h47.17q5.73,0,8.64,2.69a9,9,0,0,1,2.91,6.92,8.44,8.44,0,0,1-2.87,6.61q-2.86,2.56-8.68,2.56H270.41q-6.87,0-10.27-3a10.51,10.51,0,0,1-1-14.41q2.37-3.14,9.87-11.5,7.94-8.82,14.42-16t12-13.36q5.55-6.21,9.21-10.53t5.86-7.41H274.73q-7.41,0-11.19-1.32t-3.79-7a8.27,8.27,0,0,1,2.86-6.61q2.86-2.48,8.15-2.47H326q7.66,0,11.77,2.25t4.1,8.06a11.14,11.14,0,0,1-.8,4,14.5,14.5,0,0,1-1.76,3.4q-1,1.32-2.64,3.21T332.56,59.79Z"/><path class="cls-1" d="M426,87H378.93a31.9,31.9,0,0,0,3.31,14.46,22.1,22.1,0,0,0,20.32,12.61,28.66,28.66,0,0,0,7.89-1,25.6,25.6,0,0,0,6.92-3.17,52.53,52.53,0,0,0,6.17-4.63q2.82-2.46,7.32-6.7A7.91,7.91,0,0,1,436.14,97a8.73,8.73,0,0,1,6,2,7.26,7.26,0,0,1,2.29,5.73,15.61,15.61,0,0,1-2.56,7.63,30.07,30.07,0,0,1-7.71,8.37,43.77,43.77,0,0,1-13,6.66,55.9,55.9,0,0,1-17.94,2.64q-23.19,0-36.05-13.22T354.34,81a59.73,59.73,0,0,1,3.17-19.79,43.68,43.68,0,0,1,9.26-15.65,40.08,40.08,0,0,1,15-10A53.85,53.85,0,0,1,401.5,32q14.1,0,24.2,5.95a39.08,39.08,0,0,1,15.12,15.38,40.43,40.43,0,0,1,5,19.22q0,9.08-5.2,11.77T426,87ZM378.93,73.37h43.64Q421.69,61,415.91,54.9t-15.2-6.12A19.27,19.27,0,0,0,385.94,55Q380.17,61.2,378.93,73.37Z"/><path class="cls-1" d="M490,95.32v20.1q0,7.32-3.44,11a11.48,11.48,0,0,1-8.73,3.65,11,11,0,0,1-8.55-3.7q-3.35-3.7-3.35-10.93v-67q0-16.22,11.73-16.22,6,0,8.63,3.79t2.91,11.2A42.28,42.28,0,0,1,498.07,36q4.55-3.78,12.12-3.79A31.12,31.12,0,0,1,524.92,36q7.14,3.8,7.14,10a9.6,9.6,0,0,1-3,7.28,9.44,9.44,0,0,1-6.57,2.86,30.08,30.08,0,0,1-6.39-1.63,29.68,29.68,0,0,0-8.95-1.63,13,13,0,0,0-8.64,2.78,17.76,17.76,0,0,0-5.2,8.24,57.18,57.18,0,0,0-2.56,13Q490,84.49,490,95.32Z"/><path class="cls-1" d="M565,45.69V48.6q6.78-8.37,14.1-12.3a34.61,34.61,0,0,1,16.58-3.92,38.39,38.39,0,0,1,20.45,5.73,39.41,39.41,0,0,1,14.76,16.75q5.43,11,5.43,26.09a63.82,63.82,0,0,1-3.13,20.41,45.89,45.89,0,0,1-8.6,15.6,37.4,37.4,0,0,1-12.91,9.7,38.18,38.18,0,0,1-16,3.39q-10.32,0-17.33-4.14A49.57,49.57,0,0,1,565,113.75v36.14q0,15.87-11.55,15.87-6.79,0-9-4.1t-2.21-11.95V45.87q0-6.88,3-10.27a10.36,10.36,0,0,1,8.2-3.4,10.82,10.82,0,0,1,8.33,3.48Q565,39.17,565,45.69Zm47.16,35a41.64,41.64,0,0,0-2.91-16.36,24.06,24.06,0,0,0-8.06-10.49,19.36,19.36,0,0,0-11.42-3.65A21.41,21.41,0,0,0,573,58q-6.84,7.84-6.84,23.1,0,14.37,6.79,22.35a21.24,21.24,0,0,0,16.84,8A19.35,19.35,0,0,0,600.91,108a23.94,23.94,0,0,0,8.2-10.44A41.59,41.59,0,0,0,612.19,80.69Z"/><path class="cls-1" d="M258.36,160.68V144.51h5.55a6.71,6.71,0,0,1,4.17,1.1,3.84,3.84,0,0,1,1.43,3.27,3.56,3.56,0,0,1-.59,2,3.93,3.93,0,0,1-1.76,1.38,3.59,3.59,0,0,1,2,1.34,3.93,3.93,0,0,1,.71,2.36,4.29,4.29,0,0,1-1.46,3.5,6.35,6.35,0,0,1-4.18,1.22Zm2.81-9.36h2.76a3.19,3.19,0,0,0,2.05-.6,2.39,2.39,0,0,0,0-3.41,3.39,3.39,0,0,0-2.12-.54h-2.74Zm0,2.06v5.05h3.12a3,3,0,0,0,2.07-.65,2.29,2.29,0,0,0,.75-1.82,2.31,2.31,0,0,0-2.58-2.58Z"/><path class="cls-1" d="M288,144.51v10.8a5.24,5.24,0,0,1-1.65,4.08,6.23,6.23,0,0,1-4.39,1.51,6.31,6.31,0,0,1-4.41-1.48,5.28,5.28,0,0,1-1.63-4.12V144.51h2.8v10.81a3.42,3.42,0,0,0,.82,2.48,3.22,3.22,0,0,0,2.42.86q3.24,0,3.24-3.42V144.51Z"/><path class="cls-1" d="M302.82,156.51a1.94,1.94,0,0,0-.75-1.64,9.16,9.16,0,0,0-2.71-1.17,13.07,13.07,0,0,1-3.11-1.31,4.15,4.15,0,0,1-2.21-3.62,3.94,3.94,0,0,1,1.6-3.22,6.46,6.46,0,0,1,4.13-1.26,6.89,6.89,0,0,1,3,.62,4.93,4.93,0,0,1,2.08,1.77,4.54,4.54,0,0,1,.75,2.55h-2.79a2.55,2.55,0,0,0-.8-2,3.32,3.32,0,0,0-2.27-.71,3.45,3.45,0,0,0-2.14.59,2,2,0,0,0-.76,1.64,1.78,1.78,0,0,0,.82,1.48,9.25,9.25,0,0,0,2.71,1.16,12.13,12.13,0,0,1,3,1.28,4.64,4.64,0,0,1,1.68,1.64,4.24,4.24,0,0,1,.54,2.17,3.87,3.87,0,0,1-1.55,3.22,6.79,6.79,0,0,1-4.21,1.19,7.92,7.92,0,0,1-3.22-.65,5.34,5.34,0,0,1-2.29-1.79,4.45,4.45,0,0,1-.82-2.67h2.81a2.62,2.62,0,0,0,.91,2.13,4,4,0,0,0,2.61.76,3.47,3.47,0,0,0,2.21-.6A1.92,1.92,0,0,0,302.82,156.51Z"/><path class="cls-1" d="M314.47,160.68h-2.8V144.51h2.8Z"/><path class="cls-1" d="M334.16,160.68h-2.81l-7.21-11.47v11.47h-2.81V144.51h2.81L331.37,156V144.51h2.79Z"/><path class="cls-1" d="M350.35,153.46H343.7v5h7.77v2.25H340.89V144.51h10.5v2.26H343.7v4.47h6.65Z"/><path class="cls-1" d="M365.62,156.51a1.94,1.94,0,0,0-.75-1.64,9.08,9.08,0,0,0-2.7-1.17,12.89,12.89,0,0,1-3.11-1.31,4.13,4.13,0,0,1-2.21-3.62,4,4,0,0,1,1.59-3.22,6.47,6.47,0,0,1,4.14-1.26,6.92,6.92,0,0,1,3,.62,4.85,4.85,0,0,1,2.07,1.77,4.47,4.47,0,0,1,.76,2.55h-2.8a2.58,2.58,0,0,0-.79-2,3.33,3.33,0,0,0-2.28-.71,3.42,3.42,0,0,0-2.13.59,2,2,0,0,0-.76,1.64,1.76,1.76,0,0,0,.82,1.48,9.25,9.25,0,0,0,2.71,1.16,12.13,12.13,0,0,1,3,1.28,4.81,4.81,0,0,1,1.68,1.64,4.33,4.33,0,0,1,.53,2.17,3.87,3.87,0,0,1-1.55,3.22,6.74,6.74,0,0,1-4.2,1.19,8,8,0,0,1-3.23-.65,5.46,5.46,0,0,1-2.29-1.79,4.51,4.51,0,0,1-.81-2.67h2.81a2.59,2.59,0,0,0,.91,2.13,3.93,3.93,0,0,0,2.61.76,3.44,3.44,0,0,0,2.2-.6A1.92,1.92,0,0,0,365.62,156.51Z"/><path class="cls-1" d="M382.76,156.51a1.94,1.94,0,0,0-.75-1.64,9,9,0,0,0-2.71-1.17,13.25,13.25,0,0,1-3.11-1.31,4.14,4.14,0,0,1-2.2-3.62,4,4,0,0,1,1.59-3.22,6.47,6.47,0,0,1,4.14-1.26,7,7,0,0,1,3,.62,4.85,4.85,0,0,1,2.07,1.77,4.47,4.47,0,0,1,.76,2.55h-2.8a2.55,2.55,0,0,0-.8-2,3.28,3.28,0,0,0-2.27-.71,3.42,3.42,0,0,0-2.13.59,2,2,0,0,0-.76,1.64,1.76,1.76,0,0,0,.82,1.48,9.12,9.12,0,0,0,2.71,1.16,12.13,12.13,0,0,1,3,1.28,4.81,4.81,0,0,1,1.68,1.64,4.33,4.33,0,0,1,.53,2.17,3.87,3.87,0,0,1-1.55,3.22,6.74,6.74,0,0,1-4.2,1.19,8,8,0,0,1-3.23-.65,5.46,5.46,0,0,1-2.29-1.79,4.51,4.51,0,0,1-.81-2.67h2.81a2.59,2.59,0,0,0,.91,2.13,3.93,3.93,0,0,0,2.61.76,3.44,3.44,0,0,0,2.2-.6A1.92,1.92,0,0,0,382.76,156.51Z"/><path class="cls-1" d="M409,156.51a1.94,1.94,0,0,0-.75-1.64,9.08,9.08,0,0,0-2.7-1.17,13.07,13.07,0,0,1-3.11-1.31,4.15,4.15,0,0,1-2.21-3.62,4,4,0,0,1,1.59-3.22,6.51,6.51,0,0,1,4.14-1.26,6.89,6.89,0,0,1,3,.62,4.93,4.93,0,0,1,2.08,1.77,4.54,4.54,0,0,1,.75,2.55H409a2.54,2.54,0,0,0-.79-2,3.32,3.32,0,0,0-2.27-.71,3.45,3.45,0,0,0-2.14.59,2,2,0,0,0-.76,1.64,1.76,1.76,0,0,0,.82,1.48,9.25,9.25,0,0,0,2.71,1.16,12.13,12.13,0,0,1,3,1.28,4.64,4.64,0,0,1,1.68,1.64,4.23,4.23,0,0,1,.53,2.17,3.84,3.84,0,0,1-1.55,3.22,6.74,6.74,0,0,1-4.2,1.19,8,8,0,0,1-3.23-.65,5.36,5.36,0,0,1-2.28-1.79,4.45,4.45,0,0,1-.82-2.67h2.81a2.59,2.59,0,0,0,.91,2.13,4,4,0,0,0,2.61.76,3.47,3.47,0,0,0,2.21-.6A1.91,1.91,0,0,0,409,156.51Z"/><path class="cls-1" d="M430.57,153a9.85,9.85,0,0,1-.83,4.17,6.19,6.19,0,0,1-2.34,2.76,6.9,6.9,0,0,1-7,0A6.27,6.27,0,0,1,418,157.2a9.62,9.62,0,0,1-.85-4.1v-.91A9.79,9.79,0,0,1,418,148a6.33,6.33,0,0,1,2.36-2.77,6.94,6.94,0,0,1,7,0,6.23,6.23,0,0,1,2.36,2.74,9.77,9.77,0,0,1,.85,4.14Zm-2.81-.84a7.06,7.06,0,0,0-1-4.12,3.59,3.59,0,0,0-5.73,0,6.89,6.89,0,0,0-1.05,4V153a7.08,7.08,0,0,0,1,4.13,3.6,3.6,0,0,0,5.75,0,7.17,7.17,0,0,0,1-4.16Z"/><path class="cls-1" d="M439.59,158.43h7.34v2.25H436.78V144.51h2.81Z"/><path class="cls-1" d="M464.06,144.51v10.8a5.24,5.24,0,0,1-1.65,4.08,7.24,7.24,0,0,1-8.81,0A5.31,5.31,0,0,1,452,155.3V144.51h2.8v10.81a3.46,3.46,0,0,0,.82,2.48,3.22,3.22,0,0,0,2.42.86q3.25,0,3.25-3.42V144.51Z"/><path class="cls-1" d="M482.15,146.77h-5v13.91h-2.79V146.77h-5v-2.26h12.83Z"/><path class="cls-1" d="M490.65,160.68h-2.8V144.51h2.8Z"/><path class="cls-1" d="M510.42,153a9.85,9.85,0,0,1-.82,4.17,6.21,6.21,0,0,1-2.35,2.76,6.9,6.9,0,0,1-7,0,6.27,6.27,0,0,1-2.38-2.74,9.62,9.62,0,0,1-.85-4.1v-.91a9.79,9.79,0,0,1,.84-4.17,6.28,6.28,0,0,1,2.37-2.77,6.43,6.43,0,0,1,3.5-1,6.54,6.54,0,0,1,3.51.94,6.36,6.36,0,0,1,2.36,2.74,9.93,9.93,0,0,1,.84,4.14Zm-2.81-.84a7.06,7.06,0,0,0-1-4.12,3.29,3.29,0,0,0-2.88-1.43,3.33,3.33,0,0,0-2.85,1.42,7,7,0,0,0-1.05,4V153a7.08,7.08,0,0,0,1,4.13,3.34,3.34,0,0,0,2.88,1.45,3.29,3.29,0,0,0,2.87-1.42,7.1,7.1,0,0,0,1-4.16Z"/><path class="cls-1" d="M529.46,160.68h-2.81l-7.21-11.47v11.47h-2.81V144.51h2.81L526.67,156V144.51h2.79Z"/><polygon class="cls-2" points="171.78 23.23 185.86 37.31 137.17 95.48 101.57 60.47 17.4 169.71 100.39 106.71 138.68 140.11 209.61 61.06 226.5 77.94 229.56 17.85 171.78 23.23"/><polygon class="cls-3" points="98.22 117.57 58.41 146.46 58.41 169.71 98.22 169.71 98.22 117.57"/><polygon class="cls-3" points="54.53 148.07 26.33 169.71 54.53 169.71 54.53 148.07"/><polygon class="cls-3" points="182.04 102.85 142.23 148.89 142.23 169.71 182.04 169.71 182.04 102.85"/><polygon class="cls-3" points="225.73 86.78 210.99 72.05 185.92 100.03 185.92 169.71 225.73 169.71 225.73 86.78"/><polygon class="cls-3" points="101.96 117.57 138.5 147.94 138.06 169.71 101.96 169.71 101.96 117.57"/></svg>